<svg width="26" height="29" viewBox="0 0 26 29" fill="none" xmlns="http://www.w3.org/2000/svg">
<path d="M2.83333 28.3333C2.05417 28.3333 1.38715 28.0559 0.832292 27.501C0.277431 26.9462 0 26.2792 0 25.5V5.66667C0 4.8875 0.277431 4.22049 0.832292 3.66562C1.38715 3.11076 2.05417 2.83333 2.83333 2.83333H4.25V0H7.08333V2.83333H18.4167V0H21.25V2.83333H22.6667C23.4458 2.83333 24.1128 3.11076 24.6677 3.66562C25.2226 4.22049 25.5 4.8875 25.5 5.66667V25.5C25.5 26.2792 25.2226 26.9462 24.6677 27.501C24.1128 28.0559 23.4458 28.3333 22.6667 28.3333H2.83333ZM2.83333 25.5H22.6667V11.3333H2.83333V25.5ZM2.83333 8.5H22.6667V5.66667H2.83333V8.5ZM12.75 17C12.3486 17 12.0122 16.8642 11.7406 16.5927C11.4691 16.3212 11.3333 15.9847 11.3333 15.5833C11.3333 15.1819 11.4691 14.8455 11.7406 14.574C12.0122 14.3024 12.3486 14.1667 12.75 14.1667C13.1514 14.1667 13.4878 14.3024 13.7594 14.574C14.0309 14.8455 14.1667 15.1819 14.1667 15.5833C14.1667 15.9847 14.0309 16.3212 13.7594 16.5927C13.4878 16.8642 13.1514 17 12.75 17ZM7.08333 17C6.68194 17 6.34549 16.8642 6.07396 16.5927C5.80243 16.3212 5.66667 15.9847 5.66667 15.5833C5.66667 15.1819 5.80243 14.8455 6.07396 14.574C6.34549 14.3024 6.68194 14.1667 7.08333 14.1667C7.48472 14.1667 7.82118 14.3024 8.09271 14.574C8.36424 14.8455 8.5 15.1819 8.5 15.5833C8.5 15.9847 8.36424 16.3212 8.09271 16.5927C7.82118 16.8642 7.48472 17 7.08333 17ZM18.4167 17C18.0153 17 17.6788 16.8642 17.4073 16.5927C17.1358 16.3212 17 15.9847 17 15.5833C17 15.1819 17.1358 14.8455 17.4073 14.574C17.6788 14.3024 18.0153 14.1667 18.4167 14.1667C18.8181 14.1667 19.1545 14.3024 19.426 14.574C19.6976 14.8455 19.8333 15.1819 19.8333 15.5833C19.8333 15.9847 19.6976 16.3212 19.426 16.5927C19.1545 16.8642 18.8181 17 18.4167 17ZM12.75 22.6667C12.3486 22.6667 12.0122 22.5309 11.7406 22.2594C11.4691 21.9878 11.3333 21.6514 11.3333 21.25C11.3333 20.8486 11.4691 20.5122 11.7406 20.2406C12.0122 19.9691 12.3486 19.8333 12.75 19.8333C13.1514 19.8333 13.4878 19.9691 13.7594 20.2406C14.0309 20.5122 14.1667 20.8486 14.1667 21.25C14.1667 21.6514 14.0309 21.9878 13.7594 22.2594C13.4878 22.5309 13.1514 22.6667 12.75 22.6667ZM7.08333 22.6667C6.68194 22.6667 6.34549 22.5309 6.07396 22.2594C5.80243 21.9878 5.66667 21.6514 5.66667 21.25C5.66667 20.8486 5.80243 20.5122 6.07396 20.2406C6.34549 19.9691 6.68194 19.8333 7.08333 19.8333C7.48472 19.8333 7.82118 19.9691 8.09271 20.2406C8.36424 20.5122 8.5 20.8486 8.5 21.25C8.5 21.6514 8.36424 21.9878 8.09271 22.2594C7.82118 22.5309 7.48472 22.6667 7.08333 22.6667ZM18.4167 22.6667C18.0153 22.6667 17.6788 22.5309 17.4073 22.2594C17.1358 21.9878 17 21.6514 17 21.25C17 20.8486 17.1358 20.5122 17.4073 20.2406C17.6788 19.9691 18.0153 19.8333 18.4167 19.8333C18.8181 19.8333 19.1545 19.9691 19.426 20.2406C19.6976 20.5122 19.8333 20.8486 19.8333 21.25C19.8333 21.6514 19.6976 21.9878 19.426 22.2594C19.1545 22.5309 18.8181 22.6667 18.4167 22.6667Z" fill="white"/>
</svg>
